<?xml version="1.0" standalone="no"?>
<!DOCTYPE svg PUBLIC "-//W3C//DTD SVG 20010904//EN"
 "http://www.w3.org/TR/2001/REC-SVG-20010904/DTD/svg10.dtd">
<svg version="1.0" xmlns="http://www.w3.org/2000/svg"
 width="256.000000pt" height="256.000000pt" viewBox="0 0 256.000000 256.000000"
 preserveAspectRatio="xMidYMid meet">
<metadata>
Created by potrace 1.14, written by Peter Selinger 2001-2017
</metadata>
<g transform="translate(0.000000,256.000000) scale(0.100000,-0.100000)"
fill="#000000" stroke="none">
<path d="M0 1280 l0 -1280 1280 0 1280 0 0 1280 0 1280 -1280 0 -1280 0 0
-1280z m1528 1186 c577 -126 982 -625 982 -1210 0 -201 -44 -378 -138 -560
-263 -511 -873 -771 -1431 -610 -530 153 -891 627 -891 1169 0 293 111 593
294 800 71 79 130 137 169 164 19 13 20 13 14 -4 -7 -17 -16 -71 -37 -225 -6
-41 -18 -112 -27 -158 -19 -98 -11 -118 35 -90 20 13 29 28 36 65 5 26 13 65
18 86 l9 38 48 -7 c60 -8 111 8 157 49 99 86 102 230 8 292 -32 20 -106 21
-161 1 -56 -20 -54 -8 5 30 138 91 331 161 517 188 64 9 323 -3 393 -18z
m-798 -286 c40 -40 12 -120 -54 -155 -28 -15 -41 -17 -63 -9 -27 9 -28 13 -27
73 1 70 11 84 64 99 51 15 58 14 80 -8z"/>
<path d="M1165 2296 c-16 -8 -42 -26 -57 -42 -48 -52 -58 -91 -58 -235 l0
-131 -34 -34 c-26 -26 -42 -34 -71 -34 -92 0 -94 33 -10 172 30 50 58 106 61
125 13 69 -40 175 -89 181 -37 5 -45 -21 -19 -66 33 -62 35 -92 9 -142 -13
-25 -43 -80 -65 -123 -63 -117 -55 -192 21 -215 135 -42 214 -9 267 111 20 44
21 59 15 156 -8 125 4 166 60 201 28 17 45 38 45 55 0 7 -31 35 -38 35 -4 -1
-20 -7 -37 -14z"/>
<path d="M1211 2193 c-32 -62 -65 -419 -41 -448 29 -35 54 -18 126 81 l69 96
5 -99 c5 -91 7 -98 26 -101 23 -3 23 -3 105 140 24 43 47 77 52 78 4 0 5 -42
1 -92 -8 -120 1 -134 100 -147 76 -11 106 -3 106 29 0 25 -24 37 -90 46 l-53
7 7 91 c3 50 11 125 17 167 12 81 3 119 -26 119 -20 0 -33 -28 -41 -88 -3 -29
-10 -52 -14 -52 -4 0 -31 36 -60 80 -28 43 -59 85 -67 91 -23 20 -47 -13 -53
-74 l-5 -52 -55 73 c-57 75 -89 91 -109 55z m95 -163 l26 -40 -38 -50 c-21
-27 -40 -50 -42 -50 -5 0 7 138 14 163 7 24 10 22 40 -23z m168 -12 c21 -30
20 -38 -9 -78 l-25 -34 0 67 c0 70 9 82 34 45z"/>
<path d="M1816 2123 c-19 -37 -49 -388 -36 -413 10 -20 59 -30 141 -30 44 0
58 4 63 17 11 27 -19 46 -79 51 -30 2 -57 7 -59 11 -1 3 0 31 3 61 6 51 8 55
35 60 57 10 57 70 1 70 -22 0 -23 3 -18 63 3 34 7 64 9 66 2 2 31 -2 65 -8 67
-11 89 -4 89 29 0 25 -45 42 -127 48 -71 4 -71 4 -87 -25z"/>
<path d="M2065 2086 c-15 -11 -20 -42 -33 -187 -21 -254 -6 -276 114 -166 38
35 84 73 102 86 45 32 42 61 -15 129 -113 136 -140 159 -168 138z m92 -172
l27 -36 -38 -35 c-21 -19 -40 -33 -42 -30 -8 8 8 137 17 137 4 0 20 -16 36
-36z"/>
<path d="M553 1701 c-55 -14 -119 -59 -181 -127 -72 -77 -82 -117 -63 -229 24
-141 78 -220 185 -271 95 -46 164 -47 256 -3 129 60 210 174 210 293 0 127
-61 229 -180 301 -46 28 -70 35 -126 39 -38 3 -83 1 -101 -3z"/>
<path d="M1635 1606 c-110 -37 -176 -79 -202 -129 -8 -18 -33 -51 -54 -74 -22
-24 -39 -46 -39 -50 0 -5 -20 -35 -45 -68 -24 -33 -65 -97 -91 -142 -56 -100
-111 -164 -179 -210 -27 -18 -69 -48 -92 -66 -74 -57 -115 -78 -172 -89 -72
-13 -301 -4 -364 16 -87 26 -185 100 -239 180 -19 29 -15 -10 8 -80 134 -402
491 -706 913 -779 109 -19 295 -19 407 0 377 66 692 308 862 663 l47 97 -1
140 c-1 140 -1 140 -34 199 -52 91 -172 233 -250 293 -107 83 -169 104 -315
109 -81 2 -133 -1 -160 -10z m318 -201 c88 -27 126 -55 167 -125 51 -86 64
-141 55 -236 -14 -149 -93 -248 -221 -274 -46 -10 -74 -9 -158 5 -120 20 -168
40 -219 91 -60 60 -80 106 -80 194 0 65 4 83 32 138 90 177 256 258 424 207z
m-1133 -720 c42 -22 63 -64 46 -96 -7 -14 -11 -41 -8 -60 3 -32 -1 -40 -39
-73 -55 -47 -98 -47 -111 -1 -8 28 -3 151 8 203 8 38 57 51 104 27z m-162 -30
c54 -63 2 -166 -99 -196 -67 -20 -119 18 -119 87 0 28 31 94 54 113 45 38 129
36 164 -4z m299 -32 c-4 -32 -10 -79 -13 -105 l-6 -46 63 5 c35 3 67 11 71 17
4 6 8 37 8 68 0 56 -1 58 -32 66 -18 4 -33 15 -33 23 0 19 147 26 162 7 5 -7
22 -43 37 -81 16 -37 32 -70 37 -73 5 -3 25 29 46 70 20 41 46 79 57 84 24 10
190 1 203 -11 11 -12 -26 -37 -54 -37 -25 0 -28 -9 -38 -107 l-6 -62 46 -6
c96 -15 19 -63 -80 -50 -62 7 -88 28 -56 44 11 6 26 11 34 11 10 0 16 18 21
61 10 102 9 109 -17 109 -30 0 -47 -19 -85 -95 -16 -33 -39 -68 -50 -78 -20
-19 -21 -18 -48 24 -15 24 -37 67 -50 95 -13 29 -27 55 -32 58 -25 15 -30
-128 -6 -155 29 -32 8 -38 -119 -36 l-122 3 -3 33 c-2 19 4 68 13 110 23 107
25 111 42 111 13 0 15 -9 10 -57z m971 -23 c22 -35 43 -65 48 -67 5 -2 18 23
30 54 20 56 37 75 46 51 6 -16 -44 -194 -59 -209 -17 -17 -26 -6 -67 76 -21
42 -41 74 -44 70 -4 -4 -16 -34 -28 -68 -13 -39 -27 -63 -37 -65 -24 -5 -22
28 9 123 27 82 41 108 55 103 5 -2 26 -32 47 -68z m-230 13 c41 -25 52 -43 52
-84 0 -55 -15 -86 -51 -105 -57 -29 -129 -3 -143 51 -7 28 17 110 40 136 21
23 66 24 102 2z"/>
<path d="M1795 1324 c-37 -29 -39 -29 -76 -3 -33 23 -39 12 -9 -16 25 -23 25
-40 -1 -76 -31 -44 -28 -190 6 -294 14 -43 25 -85 25 -94 0 -14 2 -14 10 -1 5
8 10 29 10 47 0 17 13 60 30 95 16 34 29 77 29 93 -1 26 -3 24 -13 -15 -13
-51 -52 -130 -65 -130 -19 0 -36 88 -34 179 2 87 4 97 28 120 32 33 57 20 66
-33 9 -52 19 -56 19 -7 0 32 -6 47 -22 61 l-23 18 29 30 c36 39 30 58 -9 26z"/>
<path d="M1899 1301 c-53 -53 -32 -151 32 -151 39 0 37 18 -3 22 -42 4 -58 41
-38 87 43 104 199 40 159 -66 -5 -15 -45 -64 -88 -108 -60 -61 -80 -89 -85
-116 -8 -44 0 -69 22 -69 12 0 13 3 4 12 -7 7 -12 27 -12 46 0 29 12 46 79
116 89 92 101 111 101 158 0 25 -9 42 -33 66 -45 43 -96 44 -138 3z"/>
<path d="M1746 1142 c-3 -6 -1 -14 5 -17 15 -10 25 3 12 16 -7 7 -13 7 -17 1z"/>
<path d="M2046 1006 c22 -40 24 -49 14 -86 -14 -50 -46 -70 -90 -53 -29 11
-44 7 -34 -8 3 -5 27 -9 53 -9 60 0 82 22 88 87 3 36 -1 56 -16 81 -31 49 -43
39 -15 -12z"/>
<path d="M1970 960 c0 -11 7 -20 15 -20 8 0 15 9 15 20 0 11 -7 20 -15 20 -8
0 -15 -9 -15 -20z"/>
<path d="M757 643 c-4 -3 -7 -17 -7 -30 0 -16 6 -23 19 -23 49 0 68 30 32 50
-23 12 -35 13 -44 3z"/>
<path d="M757 523 c-10 -9 -9 -53 1 -53 10 0 52 43 52 53 0 9 -45 9 -53 0z"/>
<path d="M533 615 c-12 -8 -27 -31 -33 -50 -22 -66 24 -82 91 -34 32 22 43 50
34 79 -8 25 -60 27 -92 5z"/>
<path d="M1610 544 c-23 -58 -2 -90 50 -79 40 9 58 44 42 80 -9 20 -19 25 -47
25 -29 0 -37 -5 -45 -26z"/>
</g>
</svg>
